<svg width="40" height="40" viewBox="0 0 40 40" fill="none" xmlns="http://www.w3.org/2000/svg">
<path d="M20.1193 37.8323C10.151 37.8323 2.07227 29.7535 2.07227 19.7853C2.07227 9.81703 10.1535 1.73828 20.1193 1.73828C30.085 1.73828 38.1663 9.81703 38.1663 19.7853" stroke="#7E22CE" stroke-width="3.47897" stroke-miterlimit="10"/>
<path d="M12.9473 28.3651H15.179C17.0957 28.3651 18.6505 26.8104 18.6505 24.8936V20.8939C18.6505 18.9771 20.2052 17.4224 22.122 17.4224H22.37C24.2868 17.4224 25.8415 18.9771 25.8415 20.8939V34.3163C25.8415 36.2331 27.3963 37.7878 29.3131 37.7878C31.2298 37.7878 32.7846 36.2331 32.7846 34.3163V30.1009C32.7846 28.1841 34.3393 26.6294 36.2561 26.6294H39.7276" stroke="#7E22CE" stroke-width="3.47897" stroke-miterlimit="10"/>
</svg>
