<svg width="26" height="26" viewBox="0 0 26 26" fill="none" xmlns="http://www.w3.org/2000/svg">
<path d="M12.6667 2.13342L13.5344 1.12108C13.0351 0.693092 12.2983 0.693092 11.799 1.12108L12.6667 2.13342ZM1.46671 11.7334L0.598983 10.7211L0.133372 11.1202V11.7334H1.46671ZM9.46671 24.5334V25.8668C10.2031 25.8668 10.8 25.2698 10.8 24.5334H9.46671ZM15.8667 24.5334H14.5334C14.5334 25.2698 15.1303 25.8668 15.8667 25.8668V24.5334ZM23.8667 11.7334H25.2V11.1202L24.7344 10.7211L23.8667 11.7334ZM3.06671 25.8668H9.46671V23.2001H3.06671V25.8668ZM24.7344 10.7211L13.5344 1.12108L11.799 3.14577L22.999 12.7458L24.7344 10.7211ZM11.799 1.12108L0.598983 10.7211L2.33443 12.7458L13.5344 3.14577L11.799 1.12108ZM10.8 24.5334V19.7334H8.13337V24.5334H10.8ZM14.5334 19.7334V24.5334H17.2V19.7334H14.5334ZM15.8667 25.8668H22.2667V23.2001H15.8667V25.8668ZM25.2 22.9334V11.7334H22.5334V22.9334H25.2ZM0.133372 11.7334V22.9334H2.80004V11.7334H0.133372ZM12.6667 17.8668C13.6976 17.8668 14.5334 18.7025 14.5334 19.7334H17.2C17.2 17.2297 15.1704 15.2001 12.6667 15.2001V17.8668ZM12.6667 15.2001C10.163 15.2001 8.13337 17.2297 8.13337 19.7334H10.8C10.8 18.7025 11.6358 17.8668 12.6667 17.8668V15.2001ZM22.2667 25.8668C23.8867 25.8668 25.2 24.5535 25.2 22.9334H22.5334C22.5334 23.0807 22.414 23.2001 22.2667 23.2001V25.8668ZM3.06671 23.2001C2.91943 23.2001 2.80004 23.0807 2.80004 22.9334H0.133372C0.133372 24.5535 1.44667 25.8668 3.06671 25.8668V23.2001Z" fill="#999999"/>
</svg>
