<svg width="129" height="86" viewBox="0 0 129 86" fill="none" xmlns="http://www.w3.org/2000/svg">
<path d="M103.7 32.5467C100.073 14.1467 83.9133 0.333374 64.5 0.333374C49.0867 0.333374 35.7 9.08004 29.0333 21.88C12.98 23.5867 0.5 37.1867 0.5 53.6667C0.5 71.32 14.8467 85.6667 32.5 85.6667H101.833C116.553 85.6667 128.5 73.72 128.5 59C128.5 44.92 117.567 33.5067 103.7 32.5467ZM101.833 75H32.5C20.7133 75 11.1667 65.4534 11.1667 53.6667C11.1667 42.7334 19.3267 33.6134 30.1533 32.4934L35.86 31.9067L38.5267 26.84C43.5933 17.08 53.5133 11 64.5 11C78.4733 11 90.5267 20.92 93.2467 34.6267L94.8467 42.6267L103.007 43.2134C111.327 43.7467 117.833 50.7334 117.833 59C117.833 67.8 110.633 75 101.833 75ZM43.1667 48.3334H56.7667V64.3334H72.2333V48.3334H85.8333L64.5 27L43.1667 48.3334Z" fill="#7E22CE"/>
</svg>
